<svg width="341" height="81" viewBox="0 0 341 81" fill="none" xmlns="http://www.w3.org/2000/svg">
<path d="M38.1 81C30.7 81 24.1333 79.4 18.4 76.2C12.7333 72.9333 8.33333 68.4 5.2 62.6C2.06667 56.8 0.5 50.1333 0.5 42.6C0.5 35.0667 2.1 28.4667 5.3 22.8C8.5 17.0667 13 12.6333 18.8 9.49999C24.6 6.36666 31.3333 4.8 39 4.8C43.4 4.8 47.5333 5.33333 51.4 6.4C55.3333 7.4 58.7333 8.86666 61.6 10.8V16.8C58.7333 14.9333 55.3333 13.4667 51.4 12.4C47.5333 11.3333 43.5333 10.8 39.4 10.8C32.8667 10.8 27.1333 12.1333 22.2 14.8C17.3333 17.4 13.5333 21.1 10.8 25.9C8.13333 30.7 6.8 36.2667 6.8 42.6C6.8 49 8.1 54.6667 10.7 59.6C13.3 64.5333 16.9667 68.3667 21.7 71.1C26.4333 73.7667 31.9 75.1 38.1 75.1C46.2333 75.1 52.6333 72.8 57.3 68.2C61.9667 63.6 64.3 57.3333 64.3 49.4V43.9H38.7V38.1H69.9V48.4C69.9 55.1333 68.6333 60.9667 66.1 65.9C63.5667 70.7667 59.9 74.5 55.1 77.1C50.3667 79.7 44.7 81 38.1 81ZM38.1 72.2C32.6333 72.2 27.7333 70.9333 23.4 68.4C19.1333 65.8667 15.8 62.3667 13.4 57.9C11 53.4333 9.8 48.3333 9.8 42.6C9.8 36.9333 11.0333 31.9333 13.5 27.6C15.9667 23.2 19.4333 19.8 23.9 17.4C28.3667 14.9333 33.5333 13.7 39.4 13.7C43.4667 13.7 47.4667 14.3 51.4 15.5C55.4 16.6333 58.8 18.2333 61.6 20.3V26L61.2 26.3C55 21.8333 48.0333 19.6 40.3 19.6C32.8333 19.6 26.9333 21.6667 22.6 25.8C18.2667 29.9333 16.1 35.5333 16.1 42.6C16.1 47.2667 17 51.4 18.8 55C20.6667 58.5333 23.2667 61.3 26.6 63.3C29.9333 65.3 33.7667 66.3 38.1 66.3C41.3 66.3 44.2 65.7 46.8 64.5C49.4667 63.2333 51.5333 61.5667 53 59.5C54.5333 57.4333 55.3 55.1333 55.3 52.6H38.7V46.8H61.3V50.9C61.3 55.0333 60.3333 58.7333 58.4 62C56.4667 65.2 53.7333 67.7 50.2 69.5C46.7333 71.3 42.7 72.2 38.1 72.2ZM76.193 47.3C76.193 39.0333 78.393 32.6667 82.793 28.2C87.193 23.7333 93.4596 21.5 101.593 21.5C105.926 21.5 109.26 22.1333 111.593 23.4V28.7C108.593 27.5 105.46 26.9 102.193 26.9C95.7263 26.9 90.7596 28.7333 87.293 32.4C83.8263 36.0667 82.093 41.3333 82.093 48.2V79H76.193V47.3ZM84.893 48C84.893 42.1333 86.3596 37.6333 89.293 34.5C92.2263 31.3 96.4596 29.7 101.993 29.7C105.726 29.7 108.926 30.3333 111.593 31.6V37.5L111.293 37.7C108.426 36.3667 105.493 35.7 102.493 35.7C98.7596 35.7 95.8596 36.8667 93.793 39.2C91.793 41.5333 90.793 44.8667 90.793 49.2V79H84.893V48ZM144.478 81C139.211 81 134.611 80 130.678 78C126.811 76 123.811 73.1333 121.678 69.4C119.545 65.6667 118.478 61.3 118.478 56.3V23H124.378V55.7C124.378 61.7667 126.178 66.5667 129.778 70.1C133.378 73.5667 138.278 75.3 144.478 75.3C150.745 75.3 155.745 73.5667 159.478 70.1C163.211 66.5667 165.078 61.8667 165.078 56V23H170.978V56.3C170.978 61.3 169.878 65.6667 167.678 69.4C165.545 73.1333 162.478 76 158.478 78C154.478 80 149.811 81 144.478 81ZM144.478 72.5C139.145 72.5 134.911 71 131.778 68C128.711 64.9333 127.178 60.8333 127.178 55.7V23H133.078V55.3C133.078 58.9 134.078 61.7333 136.078 63.8C138.145 65.8667 140.945 66.9 144.478 66.9C148.078 66.9 150.945 65.8667 153.078 63.8C155.278 61.6667 156.378 58.8333 156.378 55.3V23H162.278V55.7C162.278 60.8333 160.678 64.9333 157.478 68C154.278 71 149.945 72.5 144.478 72.5ZM208.032 81C202.099 81 196.899 79.8 192.432 77.4C187.965 74.9333 184.499 71.4667 182.032 67C179.632 62.5333 178.432 57.3 178.432 51.3V0.599996H184.332V51.2C184.332 55.9333 185.299 60.1333 187.232 63.8C189.165 67.4 191.899 70.2333 195.432 72.3C198.965 74.3 203.032 75.3 207.632 75.3C212.299 75.3 216.465 74.2667 220.132 72.2C223.799 70.0667 226.632 67.1333 228.632 63.4C230.699 59.6667 231.732 55.3667 231.732 50.5C231.732 45.7 230.799 41.4667 228.932 37.8C227.065 34.0667 224.432 31.2 221.032 29.2C217.699 27.1333 213.832 26.1 209.432 26.1C206.832 26.1 204.265 26.5333 201.732 27.4C199.265 28.2667 197.299 29.3667 195.832 30.7V25C197.365 23.6 199.432 22.5 202.032 21.7C204.699 20.9 207.532 20.5 210.532 20.5C215.932 20.5 220.665 21.7333 224.732 24.2C228.865 26.6667 232.065 30.1333 234.332 34.6C236.599 39.0667 237.732 44.2667 237.732 50.2C237.732 56.3333 236.499 61.7333 234.032 66.4C231.632 71 228.165 74.6 223.632 77.2C219.165 79.7333 213.965 81 208.032 81ZM208.032 72.5C203.899 72.5 200.232 71.6 197.032 69.8C193.899 68 191.465 65.5 189.732 62.3C187.999 59.0333 187.132 55.3333 187.132 51.2V0.599996H193.032V51.1C193.032 55.9 194.365 59.7333 197.032 62.6C199.699 65.4 203.265 66.8 207.732 66.8C212.265 66.8 215.899 65.3333 218.632 62.4C221.432 59.4667 222.832 55.6 222.832 50.8C222.832 45.8 221.499 41.8667 218.832 39C216.232 36.1333 212.632 34.7 208.032 34.7C205.699 34.7 203.465 35.1667 201.332 36.1C199.199 36.9667 197.432 38.2333 196.032 39.9H195.832V33.8C197.232 32.3333 199.132 31.1667 201.532 30.3C203.999 29.3667 206.465 28.9 208.932 28.9C212.932 28.9 216.432 29.8333 219.432 31.7C222.432 33.5 224.765 36.0667 226.432 39.4C228.099 42.7333 228.932 46.6 228.932 51C228.932 55.1333 228.032 58.8333 226.232 62.1C224.432 65.3667 221.932 67.9333 218.732 69.8C215.599 71.6 212.032 72.5 208.032 72.5ZM276.552 81C269.886 81 264.086 79.7667 259.152 77.3C254.219 74.7667 250.386 71.2 247.652 66.6C244.986 62 243.652 56.5667 243.652 50.3C243.652 44.5667 244.886 39.4333 247.352 34.9C249.819 30.3667 253.219 26.8333 257.552 24.3C261.952 21.7667 266.919 20.5 272.452 20.5C277.652 20.5 282.219 21.7 286.152 24.1C290.086 26.4333 293.119 29.7333 295.252 34C297.452 38.2667 298.552 43.2333 298.552 48.9C298.552 51.9667 298.386 54.5667 298.052 56.7H261.452C260.852 55.5667 260.486 54.0333 260.352 52.1H292.952C293.086 51.0333 293.152 50.1 293.152 49.3C293.152 42.1667 291.286 36.5 287.552 32.3C283.819 28.1 278.752 26 272.352 26C267.886 26 263.919 27.0333 260.452 29.1C256.986 31.1667 254.252 34.0333 252.252 37.7C250.319 41.3667 249.352 45.5333 249.352 50.2C249.352 55.3333 250.486 59.8 252.752 63.6C255.019 67.4 258.252 70.3333 262.452 72.4C266.652 74.4667 271.519 75.5 277.052 75.5C283.652 75.5 289.819 74.1667 295.552 71.5V76.8C289.952 79.6 283.619 81 276.552 81ZM276.652 72.7C269.119 72.7 263.152 70.7 258.752 66.7C254.352 62.7 252.152 57.2333 252.152 50.3C252.152 46.1 253.019 42.3667 254.752 39.1C256.486 35.8333 258.886 33.3 261.952 31.5C265.086 29.7 268.652 28.8 272.652 28.8C278.052 28.8 282.319 30.7 285.452 34.5C288.586 38.3 290.152 43.3667 290.152 49.7H260.352C260.352 48.1667 260.586 46.6333 261.052 45.1H284.452C284.319 41.8333 283.119 39.1333 280.852 37C278.652 34.8667 275.819 33.8 272.352 33.8C267.886 33.8 264.319 35.3 261.652 38.3C259.052 41.2333 257.752 45.2 257.752 50.2C257.752 55.8 259.419 60 262.752 62.8C266.086 65.6 271.052 67 277.652 67C283.586 67 289.452 65.7667 295.252 63.3L295.552 63.5V68.7C292.886 69.9667 289.852 70.9667 286.452 71.7C283.119 72.3667 279.852 72.7 276.652 72.7ZM305.49 47.3C305.49 39.0333 307.69 32.6667 312.09 28.2C316.49 23.7333 322.757 21.5 330.89 21.5C335.223 21.5 338.557 22.1333 340.89 23.4V28.7C337.89 27.5 334.757 26.9 331.49 26.9C325.023 26.9 320.057 28.7333 316.59 32.4C313.123 36.0667 311.39 41.3333 311.39 48.2V79H305.49V47.3ZM314.19 48C314.19 42.1333 315.657 37.6333 318.59 34.5C321.523 31.3 325.757 29.7 331.29 29.7C335.023 29.7 338.223 30.3333 340.89 31.6V37.5L340.59 37.7C337.723 36.3667 334.79 35.7 331.79 35.7C328.057 35.7 325.157 36.8667 323.09 39.2C321.09 41.5333 320.09 44.8667 320.09 49.2V79H314.19V48Z" fill="#00AD1D"/>
</svg>
